<?xml version="1.0" encoding="UTF-8"?>
<svg width="40px" height="39px" viewBox="0 0 40 39" version="1.1" xmlns="http://www.w3.org/2000/svg" xmlns:xlink="http://www.w3.org/1999/xlink">
    <!-- Generator: Sketch 50.2 (55047) - http://www.bohemiancoding.com/sketch -->
    <title>Logo</title>
    <desc>Created with Sketch.</desc>
    <defs></defs>
    <g id="Website" stroke="none" stroke-width="1" fill="none" fill-rule="evenodd">
        <g id="Desktop---XL-Large-(Minimum)" transform="translate(-278.000000, -41.000000)" fill="#6666FF" fill-rule="nonzero">
            <g id="Logo" transform="translate(278.000000, 40.000000)">
                <g id="SVG">
                    <path d="M21.6108209,14.7252267 L6.04949225,1.27886313 C5.36169872,0.685641213 4.28702132,1.08112249 4.15806004,1.97525409 L0.0141040002,29.1602935 C-0.140649545,30.1747889 1.01140462,30.8711799 1.83675686,30.2693605 L7.47666383,26.1425993 C7.90653479,25.8244948 8.50835413,25.8502871 8.91243283,26.2027813 L23.6140196,38.9183642 C24.2072415,39.4256119 25.1185679,39.2192739 25.428075,38.4970907 C27.7751705,33.0291321 36.2436283,13.5043932 39.8975315,5.08751982 C40.3703895,4.00424501 39.1065689,2.99834697 38.1522554,3.69473792 L23.0036028,14.7854086 C22.8660441,14.8885777 22.6425112,15.0003441 22.3416016,15.0003441 C22.0148996,14.9917467 21.7741719,14.8627854 21.6108209,14.7252267 Z" id="Logo"></path>
                </g>
            </g>
        </g>
    </g>
</svg>