<?xml version="1.0" standalone="no"?>
<!DOCTYPE svg PUBLIC "-//W3C//DTD SVG 20010904//EN"
 "http://www.w3.org/TR/2001/REC-SVG-20010904/DTD/svg10.dtd">
<svg version="1.0" xmlns="http://www.w3.org/2000/svg"
 width="700.000000pt" height="700.000000pt" viewBox="0 0 700.000000 700.000000"
 preserveAspectRatio="xMidYMid meet">
<metadata>
Created by potrace 1.11, written by Peter Selinger 2001-2013
</metadata>
<g transform="translate(0.000000,700.000000) scale(0.100000,-0.100000)"
fill="#000000" stroke="none">
<path d="M3475 5611 c-112 -50 -150 -195 -78 -294 74 -101 212 -113 301 -26
157 156 -22 412 -223 320z"/>
<path d="M2529 5455 c-83 -30 -154 -101 -183 -183 -21 -58 -15 -157 12 -213
28 -59 81 -112 141 -141 64 -31 177 -32 241 0 61 29 113 82 140 140 32 66 33
179 1 243 -28 59 -81 112 -138 140 -54 26 -162 33 -214 14z"/>
<path d="M4418 5414 c-57 -17 -127 -85 -150 -143 -26 -66 -19 -158 18 -218
132 -214 456 -124 457 127 1 169 -160 286 -325 234z"/>
<path d="M5115 4804 c-88 -22 -179 -98 -219 -183 -30 -67 -29 -198 2 -262 98
-200 355 -245 510 -91 65 64 94 137 93 231 -1 113 -71 226 -174 278 -50 25
-162 39 -212 27z"/>
<path d="M1873 4637 c-113 -43 -130 -195 -29 -272 53 -40 156 -33 193 13 37
46 46 66 48 105 7 111 -107 194 -212 154z"/>
<path d="M1639 3879 c-70 -8 -138 -41 -192 -94 -63 -63 -91 -125 -95 -215 -5
-106 22 -176 98 -252 48 -48 68 -60 129 -78 163 -50 322 20 401 177 36 71 36
196 -1 273 -62 130 -198 206 -340 189z"/>
<path d="M5375 3758 c-126 -43 -185 -182 -126 -298 36 -73 90 -110 169 -117
53 -5 69 -2 114 21 34 16 64 41 83 68 27 39 30 51 30 120 0 69 -3 80 -30 120
-53 75 -159 113 -240 86z"/>
<path d="M1850 2943 c-71 -18 -106 -38 -160 -92 -73 -73 -100 -145 -96 -253
11 -327 431 -444 622 -173 58 83 70 229 27 327 -65 146 -239 231 -393 191z"/>
<path d="M5141 2832 c-63 -10 -145 -85 -165 -152 -69 -229 211 -388 376 -213
30 32 58 108 58 156 0 50 -47 135 -93 168 -47 34 -116 50 -176 41z"/>
<path d="M4392 2222 c-153 -55 -238 -216 -197 -374 15 -60 55 -128 96 -162 12
-10 45 -30 73 -44 43 -22 64 -27 136 -27 77 0 90 3 145 33 232 127 218 466
-25 569 -58 24 -167 27 -228 5z"/>
<path d="M2573 2160 c-122 -26 -205 -142 -188 -265 12 -91 73 -168 157 -194
167 -54 325 71 312 247 -4 62 -22 99 -70 147 -55 55 -137 80 -211 65z"/>
<path d="M3446 1955 c-298 -121 -227 -563 93 -583 230 -15 391 218 296 427
-68 148 -240 217 -389 156z"/>
</g>
</svg>
